# xmcd
#
# Track frame offsets:
#	150
#	16909
#	31398
#	50036
#	65606
#	79210
#	96774
#	110666
#	125698
#	143012
#	158900
#	160882
#	176091
#	186035
#	198074
#	210568
#	226843
#	244058
#	258341
#	275971
#	294197
#	309936
#	324351
#
# Disc length: 4564 seconds
#
# Revision: 0
# Processed by: cddbd v1.4PL0 Copyright (c) Steve Scherf et al.
# Submitted via: EasyCDDAExtractor 4.6.0.1
#
DISCID=4411d217
DTITLE=Various Artist - R'N'B Style
DYEAR=2001
DGENRE=Blues
TTITLE0=Famous intro
TTITLE1=Veronica - Girls gotta have fun
TTITLE2=Nelly - Ride with me
TTITLE3=Usher - U remind me
TTITLE4=R Kelly - Fiesta
TTITLE5=Alicia Keys - Fallin'
TTITLE6=Joy Enriquez - What do you want
TTITLE7=Missy Eliot - Get your freak on
TTITLE8=Athena Cage - Hey, hey
TTITLE9=Jimmy Cozier - 10 love commandements
TTITLE10=Interlude 112
TTITLE11=Erick Sermon - Music
TTITLE12=Deborah Cox - Absolutely not
TTITLE13=Misteeq - All i want
TTITLE14=Luther Vandross - Let's make tonight the night
TTITLE15=DJ Mouss feat. Dianke - J'écrirai ton nom
TTITLE16=Janet Jackson - All for you
TTITLE17=Jennifer Lopez - Play
TTITLE18=DJ Mouss feat. 15 (Quinze) - J'erre seul
TTITLE19=Foxy Brown - Hood Scriptures
TTITLE20=Ja Rule - Put it on me
TTITLE21=Jaheim - Just in case
TTITLE22=Aaliyah - We need a resolution
EXTD=
EXTT0=
EXTT1=
EXTT2=
EXTT3=
EXTT4=
EXTT5=
EXTT6=
EXTT7=
EXTT8=
EXTT9=
EXTT10=
EXTT11=
EXTT12=
EXTT13=
EXTT14=
EXTT15=
EXTT16=
EXTT17=
EXTT18=
EXTT19=
EXTT20=
EXTT21=
EXTT22=
PLAYORDER=
